# xmcd
#
# Track frame offsets: 
#        150
#        25978
#        46713
#        74138
#        90728
#        116285
#        136668
#        154833
#        184913
#        207830
#
# Disc length: 3187 seconds
#
# Revision: 0
# Processed by: cddbd v1.5.2PL0 Copyright (c) Steve Scherf et al.
# Submitted via: ExactAudioCopy v1.0b3
#
DISCID=840c710a
DTITLE=Anh Vu, VA - Trom Nhin Nhau
DYEAR=1991
DGENRE=
TTITLE0=Anh Vu - Mua Xuan la kho
TTITLE1=Anh Vu, Giao Linh - Duong tinh doi nga
TTITLE2=Anh Vu - Rung la thap
TTITLE3=Anh Vu, Phuong Mai - Tuyet lanh
TTITLE4=Anh Vu - Co hang xom (Vung ngoai o)
TTITLE5=Anh Vu - La thu cuoi cung
TTITLE6=Anh Vu, Thanh Tuyen - Trom nhin nhau
TTITLE7=Anh Vu - Linh nghi gi
TTITLE8=Anh Vu, Huong Lan - Chuyen buon ngay Xuan
TTITLE9=Anh Vu - Cay dan bo quen
EXTD=
EXTT0=
EXTT1=
EXTT2=
EXTT3=
EXTT4=
EXTT5=
EXTT6=
EXTT7=
EXTT8=
EXTT9=
PLAYORDER=
